<svg width="40" height="40" viewBox="0 0 40 40" fill="none" xmlns="http://www.w3.org/2000/svg">
  <!-- Feather/Quill Logo for Lexa -->
  <path d="M28 4C28 4 26 8 24 12C22 16 18 22 14 26C10 30 6 32 6 32L8 34C8 34 10 36 12 36C14 36 18 34 22 30C26 26 30 20 32 16C34 12 36 6 36 6L28 4Z" fill="#1a1a2e"/>
  <path d="M6 32C6 32 4 34 4 36C4 38 6 38 8 36C10 34 12 32 12 32" stroke="#1a1a2e" stroke-width="2" stroke-linecap="round"/>
  <path d="M14 26C14 26 16 24 20 22C24 20 28 18 28 18" stroke="#1a1a2e" stroke-width="1.5" stroke-linecap="round" opacity="0.6"/>
  <path d="M18 22C18 22 20 20 24 18" stroke="#1a1a2e" stroke-width="1" stroke-linecap="round" opacity="0.4"/>
</svg>
